<svg width="704" height="193" viewBox="0 0 704 193" fill="none" xmlns="http://www.w3.org/2000/svg">
<path fill-rule="evenodd" clip-rule="evenodd" d="M701.934 33.2163C702.021 35.3092 700.476 37.9721 696.019 41.1099C694.154 42.4235 691.873 43.7508 689.188 45.0859C689.6 45.6647 689.916 46.2515 690.135 46.8458C699.294 42.2809 704.12 37.6676 703.932 33.1264C702.879 7.65138 544.445 -5.90834 350.061 2.83989C155.677 11.5881 -1.04828 39.3315 0.00528085 64.8065C0.416451 74.7485 24.7976 82.8757 65.9311 88.5704C63.523 87.6234 61.4223 86.6451 59.6427 85.637C47.7299 83.8298 37.4227 81.8045 28.9192 79.5808C19.9666 77.2398 13.1327 74.7088 8.54822 72.0495C3.84918 69.3236 2.08982 66.8095 2.00326 64.7166C1.9167 62.6236 3.46196 59.9608 7.9185 56.8229C12.2664 53.7616 18.866 50.626 27.592 47.4894C45.0156 41.2263 70.4522 35.1201 102.086 29.5203C165.324 18.326 253.011 9.20966 350.144 4.83819C447.277 0.466715 535.391 1.67116 599.318 7.14246C631.296 9.87935 657.143 13.6776 675.019 18.352C683.971 20.6931 690.805 23.224 695.389 25.8834C700.089 28.6092 701.848 31.1233 701.934 33.2163Z" fill="#FAFBFB"/>
<path d="M105.613 138L100.067 122.96H55.9067L50.36 138H28.3867L63.0533 48.4H92.92L127.693 138H105.613ZM61.88 106.853H94.0933L80.0133 68.56H75.96L61.88 106.853ZM159.038 138L124.372 48.4H146.345L172.585 117.84H175.358L201.598 48.4H223.678L188.905 138H159.038ZM297.583 138L292.037 122.96H247.877L242.33 138H220.357L255.023 48.4H284.89L319.663 138H297.583ZM253.85 106.853H286.063L271.983 68.56H267.93L253.85 106.853ZM377.133 140.987C349.827 140.987 335.427 131.28 335.533 110.267H354.733C355.48 118.693 362.413 124.027 377.133 124.133C391 124.133 398.573 119.44 398.573 112.4C398.573 106.213 393.56 103.12 382.893 101.307L371.8 99.3867C354.84 96.4 337.987 91.92 337.987 72.4C337.987 55.44 352.28 45.4133 377.347 45.4133C400.707 45.4133 416.92 53.6267 417.133 75.8133H398.04C396.653 67.7067 390.36 62.2667 376.92 62.2667C364.76 62.2667 358.36 66.4267 358.36 73.36C358.36 78.8 362.733 82.2133 371.907 83.92L381.613 85.6267C398.68 88.72 419.693 91.6 419.693 113.04C419.693 130.853 405.08 140.987 377.133 140.987ZM527.047 48.4L490.033 109.307V138H468.7V109.2L431.793 48.4H454.407L478.3 88.5067H480.54L504.433 48.4H527.047ZM600.538 138L594.992 122.96H550.832L545.285 138H523.312L557.978 48.4H587.845L622.618 138H600.538ZM556.805 106.853H589.018L574.938 68.56H570.885L556.805 106.853Z" fill="#FAFBFB"/>
<path d="M93.6961 173.2C100.216 173.2 102.696 176.82 102.696 181.6C102.696 186.38 100.216 190 93.6961 190H85.9761V173.2H93.6961ZM93.6761 186.64C96.9361 186.64 98.6961 184.84 98.6961 181.6C98.6961 178.36 96.9361 176.56 93.6761 176.56H89.9961L89.9561 186.64H93.6761ZM107.067 190V173.2H121.207V176.46H111.047V180.14H120.847V183.02H111.047V186.72H121.207V190H107.067ZM125.814 190V173.2H139.934V176.54H129.794V180.5H139.374V183.52H129.794V190H125.814ZM144.515 190V173.2H148.495V190H144.515ZM153.09 190V173.2H157.71L165.51 184.5H165.89V173.2H169.79V190H165.25L157.35 178.7H156.99V190H153.09ZM174.368 190V173.2H188.508V176.46H178.348V180.14H188.148V183.02H178.348V186.72H188.508V190H174.368ZM195.155 190.32C193.995 190.32 193.035 189.36 193.035 188.22C193.035 187.06 193.995 186.1 195.155 186.1C196.335 186.1 197.295 187.06 197.295 188.22C197.295 189.36 196.335 190.32 195.155 190.32ZM225.87 190H221.91L219.15 185H213.73V190H209.75V173.2H218.57C223.07 173.2 225.45 175.3 225.45 179.22C225.45 181.56 224.31 183.26 222.59 184.2L225.87 190ZM213.73 176.54V181.94H218.35C220.37 181.94 221.49 181.02 221.49 179.24C221.49 177.46 220.37 176.54 218.35 176.54H213.73ZM230.091 190V173.2H244.231V176.46H234.071V180.14H243.871V183.02H234.071V186.72H244.231V190H230.091ZM256.168 190.56C251.048 190.56 248.348 188.74 248.368 184.8H251.968C252.108 186.38 253.408 187.38 256.168 187.4C258.768 187.4 260.188 186.52 260.188 185.2C260.188 184.04 259.248 183.46 257.248 183.12L255.168 182.76C251.988 182.2 248.828 181.36 248.828 177.7C248.828 174.52 251.508 172.64 256.208 172.64C260.588 172.64 263.628 174.18 263.668 178.34H260.088C259.828 176.82 258.648 175.8 256.128 175.8C253.848 175.8 252.648 176.58 252.648 177.88C252.648 178.9 253.468 179.54 255.188 179.86L257.008 180.18C260.208 180.76 264.148 181.3 264.148 185.32C264.148 188.66 261.408 190.56 256.168 190.56ZM268.383 190V173.2H282.523V176.46H272.363V180.14H282.163V183.02H272.363V186.72H282.523V190H268.383ZM300.705 190L299.665 187.18H291.385L290.345 190H286.225L292.725 173.2H298.325L304.845 190H300.705ZM292.505 184.16H298.545L295.905 176.98H295.145L292.505 184.16ZM324.95 190H320.99L318.23 185H312.81V190H308.83V173.2H317.65C322.15 173.2 324.53 175.3 324.53 179.22C324.53 181.56 323.39 183.26 321.67 184.2L324.95 190ZM312.81 176.54V181.94H317.43C319.45 181.94 320.57 181.02 320.57 179.24C320.57 177.46 319.45 176.54 317.43 176.54H312.81ZM337.579 190.56C332.139 190.56 328.379 186.88 328.379 181.6C328.379 176.32 332.139 172.64 337.579 172.64C341.259 172.64 345.039 174.28 345.859 179.22H342.039C341.319 177.06 339.659 176.1 337.579 176.1C334.599 176.1 332.319 178.36 332.319 181.6C332.319 184.82 334.599 187.1 337.579 187.1C339.659 187.1 341.319 186.14 342.039 183.96H345.859C345.039 188.92 341.299 190.56 337.579 190.56ZM362.488 173.2H366.488V190H362.488V183.26H354.148V190H350.168V173.2H354.148V179.94H362.488V173.2ZM373.112 190.32C371.952 190.32 370.992 189.36 370.992 188.22C370.992 187.06 371.952 186.1 373.112 186.1C374.292 186.1 375.252 187.06 375.252 188.22C375.252 189.36 374.292 190.32 373.112 190.32ZM387.707 190V173.2H391.687V190H387.707ZM396.282 190V173.2H400.902L408.702 184.5H409.082V173.2H412.982V190H408.442L400.542 178.7H400.182V190H396.282ZM417.56 190V173.2H422.18L429.98 184.5H430.36V173.2H434.26V190H429.72L421.82 178.7H421.46V190H417.56ZM447.759 190.56C442.279 190.56 438.539 186.88 438.539 181.6C438.539 176.32 442.279 172.64 447.759 172.64C453.259 172.64 456.999 176.32 456.999 181.6C456.999 186.88 453.259 190.56 447.759 190.56ZM447.759 187.1C450.759 187.1 453.039 184.9 453.039 181.6C453.039 178.3 450.759 176.1 447.759 176.1C444.779 176.1 442.479 178.3 442.479 181.6C442.479 184.9 444.779 187.1 447.759 187.1ZM465.666 190L459.166 173.2H463.286L468.206 186.22H468.726L473.646 173.2H477.786L471.266 190H465.666ZM491.643 190L490.603 187.18H482.323L481.283 190H477.163L483.663 173.2H489.263L495.783 190H491.643ZM483.443 184.16H489.483L486.843 176.98H486.083L483.443 184.16ZM512.85 173.2V176.54H506.55V190H502.55V176.54H496.27V173.2H512.85ZM517.32 190V173.2H521.3V190H517.32ZM534.815 190.56C529.335 190.56 525.595 186.88 525.595 181.6C525.595 176.32 529.335 172.64 534.815 172.64C540.315 172.64 544.055 176.32 544.055 181.6C544.055 186.88 540.315 190.56 534.815 190.56ZM534.815 187.1C537.815 187.1 540.095 184.9 540.095 181.6C540.095 178.3 537.815 176.1 534.815 176.1C531.835 176.1 529.535 178.3 529.535 181.6C529.535 184.9 531.835 187.1 534.815 187.1ZM548.345 190V173.2H552.965L560.765 184.5H561.145V173.2H565.045V190H560.505L552.605 178.7H552.245V190H548.345Z" fill="#626262"/>
</svg>
