<svg width="798" height="222" viewBox="0 0 798 222" fill="none" xmlns="http://www.w3.org/2000/svg">
<path d="M50.8604 157L110.809 48.333H144.817L166.329 157H137.225L134.061 138.177H90.4044L80.5975 157H50.8604ZM101.16 116.981H130.739L126.943 94.3622C126.732 92.4641 126.469 90.6187 126.152 88.8261C125.836 86.928 125.52 85.0826 125.203 83.2899C124.887 81.3918 124.623 79.5991 124.412 77.9119C124.201 76.2247 123.991 74.5902 123.78 73.0085H123.147C122.092 75.2229 120.932 77.6483 119.667 80.2846C118.402 82.8154 117.136 85.2935 115.871 87.7188C114.711 90.1442 113.604 92.4114 112.549 94.5204L101.16 116.981ZM203.678 157L183.748 48.333H213.011L221.394 104.011C221.71 106.331 222.08 108.914 222.501 111.762C222.923 114.609 223.292 117.351 223.609 119.987C224.03 122.623 224.347 124.943 224.558 126.947H225.507C226.667 124.521 227.932 121.938 229.303 119.196C230.674 116.349 232.045 113.554 233.415 110.813C234.786 108.071 235.999 105.593 237.054 103.378L264.576 48.333H294.63L236.579 157H203.678ZM273.679 157L333.627 48.333H367.635L389.147 157H360.043L356.879 138.177H313.223L303.416 157H273.679ZM323.979 116.981H353.558L349.761 94.3622C349.551 92.4641 349.287 90.6187 348.971 88.8261C348.654 86.928 348.338 85.0826 348.022 83.2899C347.705 81.3918 347.442 79.5991 347.231 77.9119C347.02 76.2247 346.809 74.5902 346.598 73.0085H345.965C344.911 75.2229 343.751 77.6483 342.485 80.2846C341.22 82.8154 339.955 85.2935 338.689 87.7188C337.529 90.1442 336.422 92.4114 335.367 94.5204L323.979 116.981ZM451.484 158.898C444.735 158.898 438.408 158.371 432.502 157.316C426.597 156.367 421.43 154.838 417.001 152.729C412.678 150.515 409.25 147.615 406.72 144.03C404.294 140.339 403.082 135.857 403.082 130.585C403.082 129.108 403.187 127.527 403.398 125.839C403.609 124.047 403.925 122.465 404.347 121.094H431.712C431.501 121.832 431.29 122.676 431.079 123.625C430.868 124.574 430.762 125.417 430.762 126.156C430.762 128.792 431.553 130.954 433.135 132.641C434.717 134.223 436.931 135.383 439.778 136.121C442.626 136.859 445.947 137.228 449.744 137.228C452.802 137.228 455.596 137.017 458.127 136.595C460.763 136.173 463.03 135.541 464.929 134.697C466.932 133.854 468.461 132.694 469.516 131.217C470.676 129.741 471.256 127.948 471.256 125.839C471.256 123.836 470.517 122.149 469.041 120.778C467.565 119.407 465.561 118.247 463.03 117.298C460.605 116.243 457.811 115.347 454.647 114.609C451.589 113.765 448.373 112.869 444.998 111.92C441.202 110.865 437.406 109.653 433.61 108.282C429.813 106.911 426.386 105.171 423.328 103.062C420.27 100.953 417.792 98.3166 415.894 95.1531C414.101 91.8841 413.205 87.9297 413.205 83.2899C413.205 76.6465 414.576 71.0576 417.317 66.5232C420.059 61.8834 423.75 58.0872 428.39 55.1345C433.03 52.0765 438.249 49.862 444.049 48.4911C449.955 47.1203 456.018 46.4349 462.24 46.4349C468.461 46.4349 474.208 46.9621 479.481 48.0166C484.859 49.0711 489.499 50.7056 493.4 52.9201C497.407 55.1345 500.518 57.929 502.733 61.3034C504.947 64.6778 506.054 68.7377 506.054 73.483C506.054 74.3266 506.002 75.3284 505.896 76.4883C505.791 77.5428 505.58 79.0191 505.263 80.9173H478.215C478.426 80.0737 478.532 79.441 478.532 79.0191C478.532 78.4919 478.532 78.0174 478.532 77.5956C478.532 74.5375 477.214 72.0594 474.577 70.1613C471.941 68.2632 468.039 67.3141 462.872 67.3141C458.76 67.3141 455.174 67.7886 452.116 68.7377C449.164 69.5813 446.896 70.794 445.315 72.3757C443.733 73.8521 442.942 75.6447 442.942 77.7537C442.942 79.3355 443.417 80.7064 444.366 81.8663C445.42 83.0263 446.844 84.0808 448.636 85.0298C450.429 85.8734 452.485 86.6643 454.805 87.4025C457.231 88.1406 459.867 88.8261 462.714 89.4588C466.827 90.5133 471.097 91.726 475.526 93.0968C480.061 94.3622 484.279 96.1022 488.18 98.3166C492.082 100.531 495.193 103.378 497.513 106.858C499.938 110.233 501.151 114.451 501.151 119.512C501.151 126.367 499.78 132.272 497.038 137.228C494.297 142.184 490.553 146.297 485.808 149.566C481.168 152.729 475.895 155.102 469.99 156.684C464.085 158.16 457.916 158.898 451.484 158.898ZM539.822 157L547.415 113.976L516.412 48.333H546.94L565.131 89.1424H565.922L597.715 48.333H629.508L575.728 113.976L568.136 157H539.822ZM600.955 157L660.904 48.333H694.912L716.424 157H687.319L684.156 138.177H640.499L630.692 157H600.955ZM651.255 116.981H680.834L677.038 94.3622C676.827 92.4641 676.563 90.6187 676.247 88.8261C675.931 86.928 675.614 85.0826 675.298 83.2899C674.982 81.3918 674.718 79.5991 674.507 77.9119C674.296 76.2247 674.085 74.5902 673.874 73.0085H673.242C672.187 75.2229 671.027 77.6483 669.762 80.2846C668.496 82.8154 667.231 85.2935 665.965 87.7188C664.806 90.1442 663.698 92.4114 662.644 94.5204L651.255 116.981Z" fill="white"/>
<path d="M119.949 216V195.655H128.254C130.369 195.655 132.168 196.02 133.651 196.752C135.134 197.483 136.271 198.601 137.062 200.103C137.873 201.586 138.278 203.494 138.278 205.827C138.278 208.141 137.873 210.049 137.062 211.551C136.271 213.054 135.134 214.171 133.651 214.903C132.168 215.634 130.369 216 128.254 216H119.949ZM124.368 212.352H128.224C129.114 212.352 129.905 212.224 130.597 211.967C131.289 211.709 131.862 211.334 132.317 210.84C132.771 210.325 133.117 209.693 133.355 208.941C133.592 208.17 133.711 207.281 133.711 206.272V205.382C133.711 204.374 133.592 203.494 133.355 202.743C133.117 201.972 132.771 201.339 132.317 200.845C131.862 200.331 131.289 199.945 130.597 199.688C129.905 199.411 129.114 199.273 128.224 199.273H124.368V212.352ZM143.654 216V195.655H159.906V199.273H148.102V203.811H158.542V207.399H148.102V212.352H160.084V216H143.654ZM165.678 216V195.655H180.685V199.273H170.097V204.315H179.558V207.903H170.097V216H165.678ZM185.907 216V195.655H190.326V216H185.907ZM196.607 216V195.655H200.67L208.856 206.628C208.975 206.766 209.123 206.964 209.301 207.221C209.479 207.458 209.647 207.696 209.805 207.933C209.963 208.17 210.072 208.358 210.131 208.497H210.28C210.28 208.16 210.28 207.834 210.28 207.518C210.28 207.182 210.28 206.885 210.28 206.628V195.655H214.461V216H210.398L202.035 204.76C201.837 204.483 201.629 204.176 201.412 203.84C201.194 203.504 201.036 203.247 200.937 203.069H200.789C200.789 203.366 200.789 203.662 200.789 203.959C200.789 204.236 200.789 204.503 200.789 204.76V216H196.607ZM220.746 216V195.655H236.999V199.273H225.195V203.811H235.634V207.399H225.195V212.352H237.177V216H220.746ZM242.919 216V211.759H247.219V216H242.919ZM261.246 216V195.655H272.397C273.9 195.655 275.145 195.922 276.134 196.455C277.142 196.989 277.894 197.741 278.388 198.709C278.882 199.658 279.129 200.756 279.129 202.001C279.129 203.326 278.833 204.503 278.24 205.531C277.646 206.539 276.786 207.31 275.659 207.844L279.811 216H274.918L271.329 208.585H265.665V216H261.246ZM265.665 205.086H271.804C272.694 205.086 273.386 204.819 273.88 204.285C274.374 203.731 274.621 202.99 274.621 202.061C274.621 201.468 274.513 200.963 274.295 200.548C274.078 200.113 273.761 199.787 273.346 199.569C272.931 199.352 272.417 199.243 271.804 199.243H265.665V205.086ZM284.689 216V195.655H300.942V199.273H289.138V203.811H299.578V207.399H289.138V212.352H301.12V216H284.689ZM314.633 216.356C313.446 216.356 312.319 216.237 311.252 216C310.184 215.763 309.235 215.387 308.404 214.873C307.594 214.339 306.951 213.677 306.477 212.886C306.022 212.075 305.794 211.097 305.794 209.95C305.794 209.851 305.794 209.752 305.794 209.653C305.794 209.535 305.804 209.446 305.824 209.386H310.213C310.194 209.446 310.184 209.525 310.184 209.624C310.184 209.722 310.184 209.811 310.184 209.89C310.184 210.523 310.352 211.057 310.688 211.492C311.044 211.927 311.558 212.253 312.23 212.471C312.902 212.688 313.683 212.797 314.573 212.797C315.147 212.797 315.651 212.767 316.086 212.708C316.541 212.629 316.936 212.53 317.272 212.411C317.628 212.273 317.915 212.115 318.132 211.937C318.369 211.759 318.538 211.551 318.636 211.314C318.755 211.077 318.814 210.81 318.814 210.513C318.814 209.979 318.636 209.544 318.28 209.208C317.944 208.872 317.47 208.585 316.857 208.348C316.264 208.111 315.591 207.893 314.84 207.696C314.089 207.498 313.318 207.3 312.527 207.103C311.736 206.885 310.965 206.628 310.213 206.331C309.462 206.015 308.79 205.639 308.197 205.204C307.604 204.769 307.129 204.216 306.773 203.544C306.417 202.871 306.239 202.061 306.239 201.112C306.239 200.103 306.447 199.233 306.862 198.502C307.297 197.77 307.9 197.167 308.671 196.693C309.442 196.218 310.332 195.872 311.34 195.655C312.349 195.417 313.446 195.299 314.633 195.299C315.74 195.299 316.788 195.417 317.776 195.655C318.765 195.872 319.635 196.228 320.386 196.722C321.138 197.217 321.721 197.839 322.136 198.591C322.571 199.342 322.788 200.232 322.788 201.26V201.616H318.488V201.379C318.488 200.845 318.33 200.39 318.014 200.014C317.697 199.639 317.252 199.342 316.679 199.125C316.106 198.907 315.433 198.798 314.662 198.798C313.832 198.798 313.12 198.877 312.527 199.036C311.953 199.194 311.509 199.431 311.192 199.747C310.896 200.044 310.747 200.4 310.747 200.815C310.747 201.29 310.915 201.685 311.252 202.001C311.607 202.298 312.082 202.565 312.675 202.802C313.288 203.02 313.97 203.217 314.722 203.395C315.473 203.573 316.244 203.771 317.035 203.988C317.826 204.206 318.597 204.463 319.348 204.76C320.099 205.056 320.772 205.432 321.365 205.887C321.958 206.322 322.433 206.865 322.788 207.518C323.144 208.17 323.322 208.951 323.322 209.861C323.322 211.423 322.947 212.678 322.195 213.627C321.444 214.576 320.416 215.268 319.111 215.703C317.806 216.138 316.313 216.356 314.633 216.356ZM328.623 216V195.655H344.875V199.273H333.071V203.811H343.511V207.399H333.071V212.352H345.053V216H328.623ZM348.571 216L356.401 195.655H361.858L369.688 216H364.913L363.459 211.996H354.592L353.138 216H348.571ZM355.867 208.437H362.184L360.375 203.425C360.296 203.208 360.197 202.95 360.078 202.654C359.98 202.338 359.871 201.992 359.752 201.616C359.633 201.24 359.515 200.874 359.396 200.519C359.297 200.143 359.199 199.807 359.1 199.51H358.922C358.823 199.886 358.694 200.331 358.536 200.845C358.378 201.339 358.22 201.823 358.062 202.298C357.903 202.753 357.775 203.128 357.676 203.425L355.867 208.437ZM373.888 216V195.655H385.04C386.542 195.655 387.788 195.922 388.776 196.455C389.785 196.989 390.536 197.741 391.03 198.709C391.525 199.658 391.772 200.756 391.772 202.001C391.772 203.326 391.475 204.503 390.882 205.531C390.289 206.539 389.429 207.31 388.302 207.844L392.454 216H387.56L383.972 208.585H378.307V216H373.888ZM378.307 205.086H384.446C385.336 205.086 386.028 204.819 386.522 204.285C387.017 203.731 387.264 202.99 387.264 202.061C387.264 201.468 387.155 200.963 386.938 200.548C386.72 200.113 386.404 199.787 385.989 199.569C385.573 199.352 385.059 199.243 384.446 199.243H378.307V205.086ZM406.321 216.356C404.205 216.356 402.396 215.99 400.894 215.259C399.391 214.507 398.244 213.351 397.453 211.789C396.682 210.227 396.297 208.239 396.297 205.827C396.297 202.268 397.167 199.629 398.907 197.909C400.666 196.169 403.138 195.299 406.321 195.299C408.061 195.299 409.623 195.595 411.007 196.188C412.391 196.782 413.479 197.671 414.269 198.858C415.08 200.044 415.485 201.537 415.485 203.336H411.037C411.037 202.387 410.839 201.586 410.443 200.934C410.068 200.281 409.524 199.787 408.812 199.451C408.12 199.095 407.31 198.917 406.38 198.917C405.115 198.917 404.067 199.164 403.237 199.658C402.426 200.153 401.823 200.884 401.427 201.853C401.052 202.802 400.864 203.969 400.864 205.353V206.272C400.864 207.696 401.062 208.892 401.457 209.861C401.853 210.81 402.446 211.532 403.237 212.026C404.047 212.5 405.085 212.738 406.351 212.738C407.339 212.738 408.199 212.57 408.931 212.233C409.663 211.897 410.226 211.403 410.621 210.751C411.017 210.098 411.215 209.297 411.215 208.348H415.485C415.485 210.147 415.09 211.64 414.299 212.827C413.528 214.013 412.45 214.903 411.066 215.496C409.682 216.069 408.101 216.356 406.321 216.356ZM420.747 216V195.655H425.166V203.722H434.182V195.655H438.601V216H434.182V207.458H425.166V216H420.747ZM445.034 216V211.759H449.334V216H445.034ZM463.36 216V195.655H467.779V216H463.36ZM474.06 216V195.655H478.124L486.309 206.628C486.428 206.766 486.576 206.964 486.754 207.221C486.932 207.458 487.1 207.696 487.258 207.933C487.416 208.17 487.525 208.358 487.585 208.497H487.733C487.733 208.16 487.733 207.834 487.733 207.518C487.733 207.182 487.733 206.885 487.733 206.628V195.655H491.915V216H487.851L479.488 204.76C479.29 204.483 479.083 204.176 478.865 203.84C478.648 203.504 478.489 203.247 478.391 203.069H478.242C478.242 203.366 478.242 203.662 478.242 203.959C478.242 204.236 478.242 204.503 478.242 204.76V216H474.06ZM498.199 216V195.655H502.262L510.448 206.628C510.567 206.766 510.715 206.964 510.893 207.221C511.071 207.458 511.239 207.696 511.397 207.933C511.555 208.17 511.664 208.358 511.723 208.497H511.872C511.872 208.16 511.872 207.834 511.872 207.518C511.872 207.182 511.872 206.885 511.872 206.628V195.655H516.053V216H511.99L503.627 204.76C503.429 204.483 503.221 204.176 503.004 203.84C502.786 203.504 502.628 203.247 502.529 203.069H502.381C502.381 203.366 502.381 203.662 502.381 203.959C502.381 204.236 502.381 204.503 502.381 204.76V216H498.199ZM531.829 216.356C529.674 216.356 527.815 215.97 526.253 215.199C524.691 214.428 523.495 213.262 522.664 211.7C521.834 210.138 521.419 208.18 521.419 205.827C521.419 203.435 521.834 201.468 522.664 199.925C523.495 198.363 524.691 197.207 526.253 196.455C527.815 195.684 529.674 195.299 531.829 195.299C534.023 195.299 535.892 195.684 537.434 196.455C538.996 197.207 540.192 198.363 541.023 199.925C541.853 201.468 542.268 203.435 542.268 205.827C542.268 208.18 541.853 210.138 541.023 211.7C540.192 213.262 538.996 214.428 537.434 215.199C535.892 215.97 534.023 216.356 531.829 216.356ZM531.829 212.738C532.798 212.738 533.648 212.599 534.379 212.322C535.111 212.046 535.724 211.63 536.218 211.077C536.712 210.523 537.088 209.851 537.345 209.06C537.602 208.249 537.731 207.33 537.731 206.302V205.382C537.731 204.335 537.602 203.405 537.345 202.595C537.088 201.784 536.712 201.112 536.218 200.578C535.724 200.024 535.111 199.609 534.379 199.332C533.648 199.055 532.798 198.917 531.829 198.917C530.88 198.917 530.039 199.055 529.308 199.332C528.576 199.609 527.963 200.024 527.469 200.578C526.975 201.112 526.599 201.784 526.342 202.595C526.105 203.405 525.986 204.335 525.986 205.382V206.302C525.986 207.33 526.105 208.249 526.342 209.06C526.599 209.851 526.975 210.523 527.469 211.077C527.963 211.63 528.576 212.046 529.308 212.322C530.039 212.599 530.88 212.738 531.829 212.738ZM552.629 216L545.274 195.655H550.049L554.438 208.645C554.517 208.862 554.606 209.129 554.705 209.446C554.804 209.742 554.903 210.039 555.002 210.335C555.101 210.632 555.18 210.899 555.239 211.136H555.417C555.496 210.919 555.575 210.671 555.654 210.395C555.753 210.098 555.842 209.801 555.921 209.505C556.02 209.208 556.109 208.932 556.188 208.674L560.578 195.655H565.175L557.79 216H552.629ZM566.339 216L574.168 195.655H579.625L587.455 216H582.68L581.227 211.996H572.359L570.906 216H566.339ZM573.635 208.437H579.952L578.143 203.425C578.063 203.208 577.965 202.95 577.846 202.654C577.747 202.338 577.638 201.992 577.52 201.616C577.401 201.24 577.282 200.874 577.164 200.519C577.065 200.143 576.966 199.807 576.867 199.51H576.689C576.59 199.886 576.462 200.331 576.304 200.845C576.146 201.339 575.987 201.823 575.829 202.298C575.671 202.753 575.543 203.128 575.444 203.425L573.635 208.437ZM594.177 216V199.362H587.652V195.655H605.18V199.362H598.626V216H594.177ZM609.944 216V195.655H614.363V216H609.944ZM630.135 216.356C627.98 216.356 626.121 215.97 624.559 215.199C622.997 214.428 621.801 213.262 620.97 211.7C620.14 210.138 619.725 208.18 619.725 205.827C619.725 203.435 620.14 201.468 620.97 199.925C621.801 198.363 622.997 197.207 624.559 196.455C626.121 195.684 627.98 195.299 630.135 195.299C632.329 195.299 634.198 195.684 635.74 196.455C637.302 197.207 638.498 198.363 639.329 199.925C640.159 201.468 640.574 203.435 640.574 205.827C640.574 208.18 640.159 210.138 639.329 211.7C638.498 213.262 637.302 214.428 635.74 215.199C634.198 215.97 632.329 216.356 630.135 216.356ZM630.135 212.738C631.104 212.738 631.954 212.599 632.685 212.322C633.417 212.046 634.03 211.63 634.524 211.077C635.018 210.523 635.394 209.851 635.651 209.06C635.908 208.249 636.037 207.33 636.037 206.302V205.382C636.037 204.335 635.908 203.405 635.651 202.595C635.394 201.784 635.018 201.112 634.524 200.578C634.03 200.024 633.417 199.609 632.685 199.332C631.954 199.055 631.104 198.917 630.135 198.917C629.186 198.917 628.345 199.055 627.614 199.332C626.882 199.609 626.269 200.024 625.775 200.578C625.281 201.112 624.905 201.784 624.648 202.595C624.411 203.405 624.292 204.335 624.292 205.382V206.302C624.292 207.33 624.411 208.249 624.648 209.06C624.905 209.851 625.281 210.523 625.775 211.077C626.269 211.63 626.882 212.046 627.614 212.322C628.345 212.599 629.186 212.738 630.135 212.738ZM645.942 216V195.655H650.005L658.19 206.628C658.309 206.766 658.457 206.964 658.635 207.221C658.813 207.458 658.981 207.696 659.139 207.933C659.298 208.17 659.406 208.358 659.466 208.497H659.614C659.614 208.16 659.614 207.834 659.614 207.518C659.614 207.182 659.614 206.885 659.614 206.628V195.655H663.796V216H659.732L651.369 204.76C651.171 204.483 650.964 204.176 650.746 203.84C650.529 203.504 650.37 203.247 650.272 203.069H650.123C650.123 203.366 650.123 203.662 650.123 203.959C650.123 204.236 650.123 204.503 650.123 204.76V216H645.942Z" fill="#626262"/>
<path fill-rule="evenodd" clip-rule="evenodd" d="M726.256 91.8795C771.012 82.4843 797.128 71.1726 797.128 59C797.128 26.4152 609.983 0 379.128 0C211.252 0 66.4901 13.9686 0 34.1205C75.0503 18.3658 202.513 8 347.128 8C577.983 8 765.128 34.4152 765.128 67C765.128 75.8893 751.2 84.3195 726.256 91.8795Z" fill="white"/>
</svg>
