<svg width="1920" height="1080" viewBox="0 0 1920 1080" fill="none" xmlns="http://www.w3.org/2000/svg">
<path d="M989.997 -410.5C1682.26 -410.5 2245.5 152.743 2245.5 844.997C2245.5 1537.26 1682.26 2100.5 989.997 2100.5C297.743 2100.5 -265.5 1537.26 -265.5 844.997C-265.5 152.743 297.743 -410.5 989.997 -410.5ZM621.979 1388.56C656.029 1567.51 705.498 1712.76 761.506 1813.28C789.509 1863.54 819.159 1902.64 849.351 1929.18C879.542 1955.72 910.307 1969.73 940.526 1969.73C970.761 1969.73 1001.53 1955.72 1031.71 1929.18C1061.9 1902.64 1091.53 1863.54 1119.52 1813.28C1175.49 1712.76 1224.91 1567.51 1258.95 1388.56L1259.06 1387.96H621.866L621.979 1388.56ZM1387.79 1388.37C1345.66 1621.45 1275.6 1825.79 1179.43 1954.64L1178.69 1955.64L1179.92 1955.43C1523.26 1896.78 1814.43 1683.4 1977.34 1388.7L1977.75 1387.96H1387.86L1387.79 1388.37ZM2.67969 1388.7C146.632 1649.1 390.605 1845.94 682.314 1929L683.624 1929.38L682.867 1928.25C596.273 1798.75 532.607 1605.98 493.23 1388.37L493.156 1387.96H2.26953L2.67969 1388.7ZM-134.413 909.439C-127.424 1032.52 -101.152 1150.33 -57.6348 1259.83L-57.5088 1260.14H473.146L473.071 1259.58C458.007 1145.62 449.137 1027.26 446.751 909.401L446.741 908.911H-134.442L-134.413 909.439ZM575.074 909.421C577.466 1034.61 586.62 1152 601.371 1259.71L601.431 1260.14H1279.71L1279.77 1259.71C1294.43 1152 1303.62 1034.61 1306 909.421L1306.01 908.911H575.064L575.074 909.421ZM1434.33 909.4C1431.94 1027.26 1423.01 1145.62 1407.98 1259.58L1407.9 1260.14H2037.5L2037.63 1259.83C2081.05 1150.33 2107.42 1032.52 2114.4 909.439L2114.43 908.911H1434.34L1434.33 909.4ZM-51.7871 414.287C-99.018 528.161 -127.116 651.625 -134.413 780.561L-134.442 781.089H446.747L446.757 780.599C449.207 657.268 458.8 533.438 475.21 414.548L475.288 413.979H-51.6592L-51.7871 414.287ZM603.419 414.408C587.38 526.457 577.532 649.288 575.016 780.579L575.006 781.089H1306.01L1306 780.579C1303.49 649.287 1293.62 526.392 1277.57 414.408L1277.51 413.979H603.48L603.419 414.408ZM1405.84 414.547C1422.19 533.438 1431.81 657.275 1434.33 780.6L1434.34 781.089H2114.43L2114.4 780.561C2107.11 651.625 2079.04 528.161 2031.78 414.287L2031.65 413.979H1405.76L1405.84 414.547ZM682.31 -238.914C396.64 -157.733 157.328 33.0663 12.2773 285.467L11.8477 286.217H495.949L496.025 285.809C535.617 74.6537 598.345 -111.87 682.861 -238.155L683.618 -239.286L682.31 -238.914ZM940.526 -279.721C910.757 -279.721 880.455 -266.134 850.692 -240.365C820.93 -214.596 791.675 -176.62 763.985 -127.768C708.605 -30.0612 659.44 111.229 624.991 285.619L624.873 286.217H1256.17L1256.05 285.619C1221.58 111.229 1172.41 -30.0612 1117.03 -127.768C1089.34 -176.62 1060.09 -214.596 1030.34 -240.365C1000.58 -266.134 970.287 -279.721 940.526 -279.721ZM1179.5 -264.679C1273.52 -138.84 1342.63 59.1765 1385.15 285.749L1385.23 286.157H1968.15L1967.72 285.408C1803.16 -0.883921 1516.96 -207.857 1179.98 -265.472L1178.75 -265.683L1179.5 -264.679Z" fill="#626262" stroke="white"/>
</svg>
